<svg width="17" height="17" viewBox="0 0 17 17" fill="none" xmlns="http://www.w3.org/2000/svg">
<g clip-path="url(#clip0)">
<path d="M16.502 2.66731H14.3327V0.498047C14.3327 0.222992 14.1097 0 13.8346 0C13.5596 0 13.3366 0.222992 13.3366 0.498047V2.66731H11.1674C10.8923 2.66731 10.6693 2.8903 10.6693 3.16535C10.6693 3.44041 10.8923 3.6634 11.1674 3.6634H13.3366V5.83269C13.3366 6.10775 13.5596 6.33074 13.8346 6.33074C14.1097 6.33074 14.3327 6.10775 14.3327 5.83269V3.6634H16.502C16.777 3.6634 17 3.44041 17 3.16535C17 2.8903 16.777 2.66731 16.502 2.66731Z" fill="white"/>
<path d="M5.83266 10.6693C2.61654 10.6693 0 13.2858 0 16.502C0 16.777 0.222992 17 0.498047 17H11.1673C11.4424 17 11.6654 16.777 11.6654 16.502C11.6654 13.2858 9.04881 10.6693 5.83266 10.6693Z" fill="white"/>
<path d="M5.83268 2.13387C4.08732 2.13387 2.66736 3.55386 2.66736 5.29925C2.66736 7.04464 4.08732 8.46461 5.83268 8.46461C7.57806 8.46461 8.99806 7.04464 8.99806 5.29925C8.99806 3.55386 7.57806 2.13387 5.83268 2.13387Z" fill="white"/>
</g>
<defs>
<clipPath id="clip0">
<rect width="17" height="17" fill="white"/>
</clipPath>
</defs>
</svg>
