<svg width="33" height="33" viewBox="0 0 33 33" fill="none" xmlns="http://www.w3.org/2000/svg">
<g clip-path="url(#clip0)">
<path d="M32.9137 12.6574C32.6964 11.9892 32.1037 11.5161 31.4053 11.4529L21.8792 10.5881L18.1144 1.77398C17.8364 1.12641 17.204 0.708469 16.5 0.708469C15.7961 0.708469 15.1633 1.12641 14.8871 1.77398L11.1224 10.5881L1.59473 11.4529C0.896306 11.5174 0.304888 11.9905 0.086348 12.6574C-0.130933 13.3256 0.0697309 14.0585 0.597953 14.5218L7.79895 20.836L5.67574 30.1874C5.52039 30.875 5.78727 31.586 6.35779 31.9985C6.66445 32.2213 7.02474 32.3326 7.38629 32.3326C7.69698 32.3326 8.00792 32.25 8.28563 32.0838L16.5 27.1722L24.7129 32.0838C25.3154 32.4438 26.073 32.4109 26.6422 31.9985C27.2128 31.586 27.4796 30.875 27.3243 30.1874L25.2011 20.836L32.4021 14.5218C32.93 14.0585 33.131 13.3271 32.9137 12.6574Z" fill="#D0D2D6"/>
</g>
<defs>
<clipPath id="clip0">
<rect width="33" height="33" fill="white"/>
</clipPath>
</defs>
</svg>
