<svg width="32" height="32" viewBox="0 0 32 32" fill="none" xmlns="http://www.w3.org/2000/svg">
<g clip-path="url(#clip0)">
<path d="M12 8.66667C12.736 8.66667 13.3333 8.06933 13.3333 7.33333V5.33333H18.6667V7.33333C18.6667 8.06933 19.264 8.66667 20 8.66667C20.736 8.66667 21.3333 8.06933 21.3333 7.33333V5.33333C21.3333 3.86267 20.1373 2.66667 18.6667 2.66667H13.3333C11.8627 2.66667 10.6666 3.86267 10.6666 5.33333V7.33333C10.6666 8.06933 11.264 8.66667 12 8.66667Z" fill="#D0D2D6"/>
<path d="M15.0533 20.5067C15.2933 20.6 15.64 20.6667 16 20.6667C16.36 20.6667 16.7067 20.6 17.0267 20.48L32 15.4933V25.6667C32 27.6933 30.36 29.3333 28.3333 29.3333H3.66667C1.64 29.3333 -9.53674e-07 27.6933 -9.53674e-07 25.6667V15.4933L15.0533 20.5067Z" fill="#D0D2D6"/>
<path d="M-9.53674e-07 10.3333V13.3867L15.68 18.6133C15.7867 18.6533 15.8933 18.6667 16 18.6667C16.1067 18.6667 16.2133 18.6533 16.32 18.6133L32 13.3867V10.3333C32 8.30667 30.36 6.66667 28.3333 6.66667H3.66667C1.64 6.66667 -9.53674e-07 8.30667 -9.53674e-07 10.3333V10.3333Z" fill="#D0D2D6"/>
</g>
<defs>
<clipPath id="clip0">
<rect width="32" height="32" fill="white" transform="matrix(-1 0 0 1 32 0)"/>
</clipPath>
</defs>
</svg>
